<svg width="32" height="32" viewBox="0 0 800 800" fill="none" xmlns="http://www.w3.org/2000/svg">
<path d="M676.338 247.015C661.538 236.985 642.8 234.923 626.123 241.6L545.815 273.723C544.092 228.554 507.108 192.308 461.508 192.308H184.615C137.938 192.308 100 230.246 100 276.923V523.077C100 569.754 137.938 607.692 184.615 607.692H461.538C507.108 607.692 544.123 571.415 545.846 526.277L626.154 558.4C632.615 560.985 639.415 562.246 646.154 562.246C656.769 562.246 667.292 559.108 676.338 552.985C691.138 542.954 700 526.277 700 508.4V291.6C700 273.692 691.138 257.046 676.338 247.015ZM500 523.077C500 544.277 482.738 561.538 461.538 561.538H184.615C163.415 561.538 146.154 544.277 146.154 523.077V276.923C146.154 255.723 163.415 238.461 184.615 238.461H461.538C482.738 238.461 500 255.723 500 276.923V523.077ZM653.846 508.4C653.846 511.969 651.723 513.908 650.462 514.769C649.169 515.6 646.554 516.8 643.292 515.538L546.154 476.677V323.323L643.292 284.461C646.554 283.138 649.2 284.369 650.462 285.231C651.723 286.092 653.846 288.031 653.846 291.6V508.4ZM300 307.692C300 320.431 289.662 330.769 276.923 330.769H215.385C202.646 330.769 192.308 320.431 192.308 307.692C192.308 294.954 202.646 284.615 215.385 284.615H276.923C289.662 284.615 300 294.954 300 307.692Z" fill="black"/>
</svg>
